<?xml version="1.0" encoding="utf-8"?>
<!-- Generator: Adobe Illustrator 17.1.0, SVG Export Plug-In . SVG Version: 6.00 Build 0)  -->
<!DOCTYPE svg PUBLIC "-//W3C//DTD SVG 1.1//EN" "http://www.w3.org/Graphics/SVG/1.1/DTD/svg11.dtd">
<svg version="1.1" id="Layer_1" xmlns:sketch="http://www.bohemiancoding.com/sketch/ns"
	 xmlns="http://www.w3.org/2000/svg" xmlns:xlink="http://www.w3.org/1999/xlink" x="0px" y="0px" width="40px" height="40px"
	 viewBox="0 0 40 40" enable-background="new 0 0 40 40" xml:space="preserve">
<title>ic_qu_traffic</title>
<desc>Created with Sketch.</desc>
<g transform="translate(0 0)" sketch:type="MSShapeGroup">
	<circle fill="#DB4437" cx="20" cy="20" r="20"/>
	<path fill="#FFFFFF" d="M30.3,20h-0.7c-0.4,0-0.7-0.3-0.7-0.7V18h-1.3L26,13l0,0h3.2l-0.9-2.8h-6.5L21.1,12h-1.6l0.7-2.3
		C20.3,9.3,20.7,9,21.2,9h7.5c0.4,0,0.8,0.3,0.9,0.7l1.4,3.9v5.7C31,19.7,30.7,20,30.3,20z M29,14.4c-0.6,0-1,0.4-1,1
		c0,0.6,0.5,1,1,1c0.6,0,1-0.4,1-1C30,14.9,29.6,14.4,29,14.4z M25,15l2,5.8V29c0,0.6-0.4,1-1,1h-1c-0.5,0-1-0.5-1-1v-1H12v1
		c0,0.6-0.4,1-1,1h-1c-0.5,0-1-0.5-1-1v-8.1l2-5.8c0.2-0.6,0.7-1,1.4-1h11.1C24.2,14,24.8,14.4,25,15z M22.4,24.9
		c0.8,0,1.5-0.7,1.5-1.5c0-0.8-0.7-1.5-1.5-1.5c-0.8,0-1.5,0.7-1.5,1.5C20.9,24.3,21.6,24.9,22.4,24.9z M13.5,25
		c0.8,0,1.5-0.7,1.5-1.5c0-0.8-0.7-1.5-1.5-1.5c-0.8,0-1.5,0.7-1.5,1.5C12,24.3,12.7,25,13.5,25z M12.9,15.9L11.6,20h12.9l-1.4-4.1
		C23.1,15.9,12.9,15.9,12.9,15.9z"/>
</g>
</svg>
